{
  "accessors": [
    {
      "bufferView": 3,
      "componentType": 5126,
      "count": 2426,
      "max": [
        0.3380091190338135,
        2.32597279548645,
        1.5763006210327148
      ],
      "min": [
        -0.33800891041755676,
        -2.2211620807647705,
        -1.4132992029190063
      ],
      "type": "VEC3"
    },
    {
      "bufferView": 3,
      "byteOffset": 29112,
      "componentType": 5126,
      "count": 2426,
      "max": [
        1.0,
        1.0,
        1.0
      ],
      "min": [
        -1.0,
        -1.0,
        -1.0
      ],
      "type": "VEC3"
    },
    {
      "bufferView": 4,
      "componentType": 5126,
      "count": 2426,
      "max": [
        1.0,
        0.9999998211860657,
        0.9999997615814209,
        1.0
      ],
      "min": [
        -1.0,
        -0.9631844758987427,
        -1.0,
        1.0
      ],
      "type": "VEC4"
    },
    {
      "bufferView": 2,
      "componentType": 5126,
      "count": 2426,
      "max": [
        0.9934906959533691,
        0.9964132308959961
      ],
      "min": [
        0.003586679697036743,
        0.003586679697036743
      ],
      "type": "VEC2"
    },
    {
      "bufferView": 1,
      "componentType": 5125,
      "count": 7650,
      "type": "SCALAR"
    },
    {
      "bufferView": 5,
      "componentType": 5126,
      "count": 8,
      "max": [
        100.0,
        1.3414098248176742e-05,
        1.0000001192092896,
        0.0,
        0.8240551352500916,
        100.00000762939453,
        2.1581906821666053e-06,
        0.0,
        0.3882429003715515,
        0.8240551948547363,
        100.00000762939453,
        0.0,
        2.742436408996582,
        1.6607141494750977,
        2.1293203644745518e-06,
        1.0
      ],
      "min": [
        -2.6169200850745256e-07,
        -1.9129745965074108e-07,
        0.0,
        0.0,
        -0.9556860327720642,
        -0.3882457911968231,
        -1.3415249668469187e-05,
        0.0,
        -0.9999873042106628,
        -0.9556860327720642,
        -1.1089714462286793e-06,
        0.0,
        -1.052006721496582,
        -0.3941338360309601,
        -1.896864159789402e-05,
        1.0
      ],
      "type": "MAT4"
    },
    {
      "bufferView": 0,
      "componentType": 5123,
      "count": 2426,
      "type": "VEC4"
    },
    {
      "bufferView": 4,
      "byteOffset": 38816,
      "componentType": 5126,
      "count": 2426,
      "max": [
        1.0,
        0.0,
        0.0,
        0.0
      ],
      "min": [
        1.0,
        0.0,
        0.0,
        0.0
      ],
      "type": "VEC4"
    },
    {
      "bufferView": 6,
      "componentType": 5126,
      "count": 6,
      "max": [
        0.1666666716337204
      ],
      "min": [
        0.0
      ],
      "type": "SCALAR"
    },
    {
      "bufferView": 8,
      "componentType": 5126,
      "count": 6,
      "max": [
        1.1335372391840792e-06,
        -1.2018278816583461e-08,
        0.9948260188102722,
        -0.1015932634472847
      ],
      "min": [
        1.1335372391840792e-06,
        -1.2018278816583461e-08,
        0.9948260188102722,
        -0.1015932634472847
      ],
      "type": "VEC4"
    },
    {
      "bufferView": 6,
      "byteOffset": 24,
      "componentType": 5126,
      "count": 6,
      "max": [
        0.1666666716337204
      ],
      "min": [
        0.0
      ],
      "type": "SCALAR"
    },
    {
      "bufferView": 8,
      "byteOffset": 96,
      "componentType": 5126,
      "count": 6,
      "max": [
        7.437976137225633e-07,
        2.7494590426613286e-07,
        0.9002121090888977,
        -0.4354517161846161
      ],
      "min": [
        7.437976137225633e-07,
        2.7494590426613286e-07,
        0.9002121090888977,
        -0.4354517161846161
      ],
      "type": "VEC4"
    },
    {
      "bufferView": 6,
      "byteOffset": 48,
      "componentType": 5126,
      "count": 9,
      "max": [
        0.1666666716337204
      ],
      "min": [
        0.0
      ],
      "type": "SCALAR"
    },
    {
      "bufferView": 7,
      "componentType": 5126,
      "count": 9,
      "max": [
        0.9230640530586243,
        1.7833391427993774,
        2.398151650595537e-07
      ],
      "min": [
        0.315176784992218,
        1.3654372692108154,
        2.398151650595537e-07
      ],
      "type": "VEC3"
    },
    {
      "bufferView": 6,
      "byteOffset": 84,
      "componentType": 5126,
      "count": 9,
      "max": [
        0.1666666716337204
      ],
      "min": [
        0.0
      ],
      "type": "SCALAR"
    },
    {
      "bufferView": 8,
      "byteOffset": 192,
      "componentType": 5126,
      "count": 9,
      "max": [
        5.304150363372173e-08,
        8.176538557336244e-08,
        -0.4677882492542267,
        0.8838405609130859
      ],
      "min": [
        5.304150363372173e-08,
        8.176538557336244e-08,
        -0.4677882492542267,
        0.8838405609130859
      ],
      "type": "VEC4"
    },
    {
      "bufferView": 6,
      "byteOffset": 120,
      "componentType": 5126,
      "count": 9,
      "max": [
        0.1666666716337204
      ],
      "min": [
        0.0
      ],
      "type": "SCALAR"
    },
    {
      "bufferView": 8,
      "byteOffset": 336,
      "componentType": 5126,
      "count": 9,
      "max": [
        0.68306964635849,
        0.20972903072834015,
        -0.1828003227710724,
        0.6830694675445557
      ],
      "min": [
        0.6752879619598389,
        0.18280038237571716,
        -0.20972897112369537,
        0.6752878427505493
      ],
      "type": "VEC4"
    }
  ],
  "animations": [
    {
      "channels": [
        {
          "sampler": 0,
          "target": {
            "node": 11,
            "path": "rotation"
          }
        },
        {
          "sampler": 1,
          "target": {
            "node": 13,
            "path": "rotation"
          }
        },
        {
          "sampler": 2,
          "target": {
            "node": 15,
            "path": "translation"
          }
        },
        {
          "sampler": 3,
          "target": {
            "node": 15,
            "path": "rotation"
          }
        },
        {
          "sampler": 4,
          "target": {
            "node": 10,
            "path": "rotation"
          }
        }
      ],
      "name": "Armature|ArmatureAction",
      "samplers": [
        {
          "input": 8,
          "interpolation": "LINEAR",
          "output": 9
        },
        {
          "input": 10,
          "interpolation": "LINEAR",
          "output": 11
        },
        {
          "input": 12,
          "interpolation": "LINEAR",
          "output": 13
        },
        {
          "input": 14,
          "interpolation": "LINEAR",
          "output": 15
        },
        {
          "input": 16,
          "interpolation": "LINEAR",
          "output": 17
        }
      ]
    }
  ],
  "asset": {
    "extras": {
      "author": "Klasy (https://sketchfab.com/Klasy)",
      "license": "CC-BY-4.0 (http://creativecommons.org/licenses/by/4.0/)",
      "source": "https://sketchfab.com/3d-models/stylized-pistol-low-poly-rigged-37c5583eb5974f57bcbfe447bbec9cd2",
      "title": "Stylized Pistol Low Poly Rigged"
    },
    "generator": "Sketchfab-15.17.0",
    "version": "2.0"
  },
  "bufferViews": [
    {
      "buffer": 0,
      "byteLength": 19408,
      "byteStride": 8,
      "name": "shortBufferViews",
      "target": 34962
    },
    {
      "buffer": 0,
      "byteLength": 30600,
      "byteOffset": 19408,
      "name": "floatBufferViews",
      "target": 34963
    },
    {
      "buffer": 0,
      "byteLength": 19408,
      "byteOffset": 50008,
      "byteStride": 8,
      "name": "floatBufferViews",
      "target": 34962
    },
    {
      "buffer": 0,
      "byteLength": 58224,
      "byteOffset": 69416,
      "byteStride": 12,
      "name": "floatBufferViews",
      "target": 34962
    },
    {
      "buffer": 0,
      "byteLength": 77632,
      "byteOffset": 127640,
      "byteStride": 16,
      "name": "floatBufferViews",
      "target": 34962
    },
    {
      "buffer": 0,
      "byteLength": 512,
      "byteOffset": 205272,
      "name": "floatBufferViews"
    },
    {
      "buffer": 0,
      "byteLength": 156,
      "byteOffset": 205784,
      "name": "floatBufferViews"
    },
    {
      "buffer": 0,
      "byteLength": 108,
      "byteOffset": 205940,
      "byteStride": 12,
      "name": "floatBufferViews"
    },
    {
      "buffer": 0,
      "byteLength": 480,
      "byteOffset": 206048,
      "byteStride": 16,
      "name": "floatBufferViews"
    }
  ],
  "buffers": [
    {
      "byteLength": 206528,
      "uri": "scene.bin"
    }
  ],
  "extensionsUsed": [
    "KHR_materials_specular"
  ],
  "images": [
    {
      "uri": "textures/Material.001_baseColor.png"
    },
    {
      "uri": "textures/Material.001_metallicRoughness.png"
    },
    {
      "uri": "textures/Material.001_normal.png"
    }
  ],
  "materials": [
    {
      "doubleSided": true,
      "extensions": {
        "KHR_materials_specular": {
          "specularColorFactor": [
            1.0,
            1.0,
            1.0
          ],
          "specularFactor": 1.0
        }
      },
      "name": "Material.001",
      "normalTexture": {
        "index": 2
      },
      "pbrMetallicRoughness": {
        "baseColorTexture": {
          "index": 0
        },
        "metallicRoughnessTexture": {
          "index": 1
        }
      }
    }
  ],
  "meshes": [
    {
      "name": "Cube_Material.001_0",
      "primitives": [
        {
          "attributes": {
            "JOINTS_0": 6,
            "NORMAL": 1,
            "POSITION": 0,
            "TANGENT": 2,
            "TEXCOORD_0": 3,
            "TEXCOORD_1": 3,
            "TEXCOORD_2": 3,
            "WEIGHTS_0": 7
          },
          "indices": 4,
          "material": 0,
          "mode": 4
        }
      ]
    }
  ],
  "nodes": [
    {
      "children": [
        1
      ],
      "matrix": [
        -0.8611444234848022,
        0.0008385974797421332,
        -0.5083597302436829,
        0.0,
        0.5083599090576172,
        -1.962000018128571e-16,
        -0.8611447215080261,
        0.0,
        -0.0007221537525765598,
        -0.9999996423721313,
        -0.00042630932875931116,
        0.0,
        0.0,
        0.0,
        0.0,
        1.0
      ],
      "name": "Sketchfab_model"
    },
    {
      "children": [
        2
      ],
      "matrix": [
        0.009999999776482582,
        0.0,
        0.0,
        0.0,
        0.0,
        -0.009999999776482582,
        0.0,
        0.0,
        0.0,
        0.0,
        -0.009999999776482582,
        0.0,
        0.0,
        0.0,
        0.0,
        1.0
      ],
      "name": "9ef7431222fb48fea1619fbcc09f326f.fbx"
    },
    {
      "children": [
        3
      ],
      "name": "Object_2"
    },
    {
      "children": [
        4,
        5
      ],
      "name": "RootNode"
    },
    {
      "name": "Cube",
      "rotation": [
        -0.0609254390001297,
        0.06092544272542,
        0.7044771909713745,
        0.7044771313667297
      ],
      "scale": [
        100.0,
        100.0,
        100.0
      ],
      "translation": [
        1.1920928045583423e-05,
        -135.21824645996094,
        -91.1038589477539
      ]
    },
    {
      "children": [
        6
      ],
      "name": "Armature",
      "rotation": [
        0.0,
        0.0,
        0.7071068286895752,
        0.7071067094802856
      ],
      "scale": [
        100.0,
        100.0,
        100.0
      ],
      "translation": [
        1.1920928045583423e-05,
        -135.21824645996094,
        -91.1038589477539
      ]
    },
    {
      "children": [
        7,
        9,
        8
      ],
      "name": "Object_6"
    },
    {
      "children": [
        10
      ],
      "name": "_rootJoint"
    },
    {
      "matrix": [
        -2.3067032582946714e-06,
        98.51523761579074,
        -17.168235175626712,
        0.0,
        -100.00000429153513,
        -2.3067034079815173e-06,
        1.9949059104071637e-07,
        0.0,
        -1.9949163443995396e-07,
        17.16823576941022,
        98.51524102305554,
        0.0,
        1.1920928285625784e-05,
        -135.2182459994099,
        -91.10386589142217,
        1.0
      ],
      "name": "Object_8"
    },
    {
      "mesh": 0,
      "name": "Object_9",
      "skin": 0
    },
    {
      "children": [
        11,
        13,
        15
      ],
      "name": "Root_00",
      "rotation": [
        0.6752879619598389,
        0.20972903072834015,
        -0.20972897112369537,
        0.6752878427505493
      ],
      "scale": [
        1.0,
        0.9999999403953552,
        0.9999999403953552
      ],
      "translation": [
        -1.8485467433929443,
        1.4735222464423714e-07,
        1.0961356163024902
      ]
    },
    {
      "children": [
        12
      ],
      "name": "Mag_01",
      "rotation": [
        1.1335372391840792e-06,
        -1.201831167918499e-08,
        0.9948260188102722,
        -0.10159323364496231
      ],
      "scale": [
        1.0000076293945313,
        1.0000001192092896,
        1.0
      ],
      "translation": [
        1.791805624961853,
        1.0620676279067993,
        6.969193009354058e-07
      ]
    },
    {
      "name": "Mag_end_04",
      "rotation": [
        0.0,
        -3.705769144237564e-22,
        0.0,
        1.0
      ],
      "translation": [
        2.220446049250313e-16,
        1.5447089672088623,
        0.0
      ]
    },
    {
      "children": [
        14
      ],
      "name": "Trigger_02",
      "rotation": [
        7.437976137225633e-07,
        2.749459326878423e-07,
        0.9002121090888977,
        -0.4354517459869385
      ],
      "scale": [
        0.9999997615814209,
        0.9999998807907104,
        1.0
      ],
      "translation": [
        2.0267856121063232,
        1.8392106294631958,
        4.812925453734351e-07
      ]
    },
    {
      "name": "Trigger_end_05",
      "rotation": [
        0.0,
        -1.406207041340147e-22,
        0.0,
        1.0
      ],
      "translation": [
        -5.551115123125783e-17,
        0.4391603469848633,
        -5.293955920339377e-23
      ]
    },
    {
      "children": [
        16
      ],
      "name": "Idek_03",
      "rotation": [
        5.304150008100805e-08,
        8.176538557336244e-08,
        -0.4677882492542267,
        0.8838405609130859
      ],
      "translation": [
        0.9230640530586243,
        1.7833391427993774,
        2.398151650595537e-07
      ]
    },
    {
      "name": "Idek_end_06",
      "rotation": [
        1.6543612251060553e-24,
        5.293955920339377e-23,
        4.336808689942018e-19,
        1.0
      ],
      "translation": [
        -2.220446049250313e-16,
        1.544709324836731,
        5.293955920339377e-23
      ]
    }
  ],
  "samplers": [
    {
      "magFilter": 9729,
      "minFilter": 9987,
      "wrapS": 10497,
      "wrapT": 10497
    }
  ],
  "scene": 0,
  "scenes": [
    {
      "name": "Sketchfab_Scene",
      "nodes": [
        0
      ]
    }
  ],
  "skins": [
    {
      "inverseBindMatrices": 5,
      "joints": [
        7,
        10,
        11,
        12,
        13,
        14,
        15,
        16
      ],
      "skeleton": 7
    }
  ],
  "textures": [
    {
      "sampler": 0,
      "source": 0
    },
    {
      "sampler": 0,
      "source": 1
    },
    {
      "sampler": 0,
      "source": 2
    }
  ]
}
